<svg xmlns="http://www.w3.org/2000/svg" fill="none" viewBox="0 0 60 60">
  <rect width="60" height="60" fill="#1A1A1A" rx="13"/>
  <path fill="#EBFF63" d="M25.576 32.993c0 .55.138 1.138.412 1.805h7.827c.197-.667.608-1.295 1.217-1.923a15.921 15.921 0 0 1 1.942-1.706 29.79 29.79 0 0 0 2-1.668c.648-.588 1.197-1.373 1.629-2.314.431-.942.647-2.02.647-3.217 0-2.334-1.02-4.355-3.06-6.08-2.04-1.727-4.688-2.59-7.984-2.59-1.609 0-3.119.255-4.512.745-1.393.51-2.491 1.06-3.276 1.648a12.49 12.49 0 0 0-2.118 2.08c-.628.784-1.04 1.333-1.197 1.647-.157.314-.275.55-.353.745l7.63 3.413.236-.45c.196-.315.55-.628 1.06-.923.51-.294 1.078-.431 1.726-.431 1.196-.02 1.804.51 1.804 1.589 0 .392-.196.784-.588 1.137-.392.354-.863.726-1.412 1.08-.55.352-1.08.745-1.629 1.176-.549.432-1.02 1.02-1.412 1.746-.392.726-.588 1.55-.588 2.491Zm-.392 7.65c0 1.118.412 2.06 1.236 2.825.824.784 1.883 1.157 3.158 1.157 1.295 0 2.354-.373 3.178-1.157.824-.765 1.236-1.707 1.236-2.825 0-1.138-.412-2.08-1.236-2.864-.824-.784-1.883-1.157-3.178-1.157-1.275 0-2.334.373-3.158 1.157-.824.785-1.236 1.726-1.236 2.864Z"/>
</svg>
