<svg xmlns="http://www.w3.org/2000/svg" viewBox="0 0 171.505 139.378">
  <path fill="#2aa9e0" d="M171.505 16.499a70.317 70.317 0 0 1-20.209 5.54c7.264-4.355 12.844-11.25 15.471-19.467a70.408 70.408 0 0 1-22.345 8.538A35.14 35.14 0 0 0 118.739 0C99.308 0 83.553 15.754 83.553 35.186c0 2.758.311 5.444.912 8.019-29.243-1.467-55.17-15.476-72.525-36.764A35.016 35.016 0 0 0 7.176 24.13c0 12.208 6.212 22.977 15.653 29.287a35.052 35.052 0 0 1-15.937-4.401c-.004.147-.004.294-.004.442 0 17.048 12.129 31.268 28.226 34.503a35.236 35.236 0 0 1-15.89.603c4.478 13.979 17.472 24.151 32.87 24.434-12.042 9.438-27.214 15.063-43.7 15.063A71.56 71.56 0 0 1 0 123.569c15.572 9.984 34.067 15.809 53.938 15.809 64.72 0 100.113-53.615 100.113-100.114a101.56 101.56 0 0 0-.102-4.553 71.47 71.47 0 0 0 17.556-18.213z"/>
</svg>
